<svg width="724" height="800" viewBox="0 0 724 800" fill="none" xmlns="http://www.w3.org/2000/svg">
<g clip-path="url(#clip0_308_168)">
<path fill-rule="evenodd" clip-rule="evenodd" d="M341.009 5.45408C353.942 -1.80305 369.866 -1.80305 382.78 5.45408C446.685 41.3207 638.989 149.282 702.913 185.149C715.846 192.387 723.808 205.797 723.808 220.311C723.808 292.044 723.808 507.948 723.808 579.681C723.808 594.196 715.846 607.605 702.913 614.862C639.008 650.729 446.704 758.691 382.78 794.557C369.847 801.814 353.923 801.814 341.009 794.557C277.104 758.691 84.7998 650.729 20.8762 614.862C7.96189 607.605 0 594.215 0 579.7C0 507.967 0 292.063 0 220.33C0 205.816 7.96189 192.406 20.8952 185.149C84.7808 149.282 277.123 41.3207 341.009 5.45408Z" fill="url(#paint0_linear_308_168)"/>
<path fill-rule="evenodd" clip-rule="evenodd" d="M5.79046 598.176C0.723806 591.395 0 584.957 0 576.29C0 504.976 0 290.31 0 218.976C0 204.538 7.94284 191.205 20.8381 184.005C84.5141 148.348 276.171 41.0148 339.847 5.33869C352.742 -1.88035 370.209 -1.72796 383.104 5.49107C446.78 41.1481 637.789 147.567 701.465 183.224C706.608 186.119 710.532 189.605 714.037 194.195L5.79046 598.176Z" fill="url(#paint1_linear_308_168)"/>
<path fill-rule="evenodd" clip-rule="evenodd" d="M361.908 133.338C509.089 133.338 628.574 252.824 628.574 400.005C628.574 547.185 509.089 666.671 361.908 666.671C214.728 666.671 95.2422 547.185 95.2422 400.005C95.2422 252.824 214.728 133.338 361.908 133.338ZM361.908 266.671C435.489 266.671 495.241 326.405 495.241 400.005C495.241 473.585 435.489 533.338 361.908 533.338C288.328 533.338 228.575 473.585 228.575 400.005C228.575 326.405 288.308 266.671 361.908 266.671Z" fill="white"/>
<path fill-rule="evenodd" clip-rule="evenodd" d="M713.999 194.386C723.828 203.586 723.637 217.452 723.637 228.367C723.637 300.652 723.028 506.252 723.809 578.537C723.885 586.08 721.39 594.023 717.656 600.004L354.152 400.004L713.999 194.386Z" fill="url(#paint2_linear_308_168)"/>
<path opacity="0.05" fill-rule="evenodd" clip-rule="evenodd" d="M361.905 133.339C459.581 133.339 544.8 186.119 591.257 264.519L475.581 330.614C452.134 292.329 410.038 266.672 361.905 266.672C288.305 266.672 228.572 326.405 228.572 400.005C228.572 473.586 288.324 533.338 361.905 533.338C410.857 533.338 453.562 506.824 476.743 467.452L593.543 531.719C547.619 612.233 461.143 666.671 361.905 666.671C214.724 666.671 95.239 547.185 95.239 400.005C95.239 252.824 214.724 133.339 361.905 133.339ZM361.905 114.291C204.363 114.291 76.1914 242.462 76.1914 400.005C76.1914 557.547 204.363 685.718 361.905 685.718C464.133 685.718 559.238 630.328 610.095 541.147L619.676 524.347L602.724 515.014L485.924 450.747L469.714 441.833L460.324 457.776C439.81 492.633 402.096 514.29 361.905 514.29C298.896 514.29 247.62 463.014 247.62 400.005C247.62 336.995 298.896 285.719 361.905 285.719C401.886 285.719 438.305 306.214 459.333 340.557L468.991 356.329L485.029 347.167L600.705 281.072L617.505 271.472L607.638 254.824C556.286 168.139 462.133 114.291 361.905 114.291Z" fill="black"/>
<path opacity="0.07" fill-rule="evenodd" clip-rule="evenodd" d="M361.905 133.339C459.581 133.339 544.8 186.12 591.257 264.519L475.581 330.615C452.133 292.329 410.038 266.672 361.905 266.672C288.305 266.672 228.572 326.405 228.572 400.005C228.572 473.586 288.324 533.338 361.905 533.338C410.857 533.338 453.562 506.824 476.743 467.452L593.542 531.719C547.619 612.233 461.143 666.671 361.905 666.671C214.724 666.671 95.2386 547.186 95.2386 400.005C95.2386 252.824 214.724 133.339 361.905 133.339ZM361.905 123.815C209.619 123.815 85.7148 247.719 85.7148 400.005C85.7148 552.29 209.619 676.195 361.905 676.195C460.724 676.195 552.647 622.633 601.809 536.443L606.609 528.043L598.133 523.376L481.333 459.11L473.238 454.652L468.552 462.614C446.305 500.367 405.448 523.814 361.905 523.814C293.638 523.814 238.095 468.271 238.095 400.005C238.095 331.738 293.638 276.196 361.905 276.196C405.238 276.196 444.686 298.405 467.466 335.586L472.285 343.472L480.304 338.881L595.98 272.786L604.38 267.986L599.447 259.662C549.79 175.872 458.781 123.815 361.905 123.815Z" fill="black"/>
</g>
<defs>
<linearGradient id="paint0_linear_308_168" x1="332.952" y1="320.444" x2="511.104" y2="809.91" gradientUnits="userSpaceOnUse">
<stop stop-color="#3940A4"/>
<stop offset="1" stop-color="#293091"/>
</linearGradient>
<linearGradient id="paint1_linear_308_168" x1="217.714" y1="7.28154" x2="413.085" y2="544.042" gradientUnits="userSpaceOnUse">
<stop stop-color="#7B83EB"/>
<stop offset="1" stop-color="#5961C3"/>
</linearGradient>
<linearGradient id="paint2_linear_308_168" x1="495.828" y1="187.91" x2="661.599" y2="643.375" gradientUnits="userSpaceOnUse">
<stop stop-color="#5C65D6"/>
<stop offset="0.999" stop-color="#464EB0"/>
</linearGradient>
<clipPath id="clip0_308_168">
<rect width="724" height="800" fill="white"/>
</clipPath>
</defs>
</svg>
