<svg width="686" height="800" viewBox="0 0 686 800" fill="none" xmlns="http://www.w3.org/2000/svg">
<g clip-path="url(#clip0_308_176)">
<path d="M676.993 599.998C682.373 590.335 685.715 579.45 685.715 569.672V230.323C685.715 220.547 682.375 209.663 676.993 200L342.858 400.001L676.993 599.998Z" fill="#00599C"/>
<path d="M372.557 792.667L656.032 622.993C664.197 618.104 671.62 609.664 677 600.001L342.865 400.001L8.73218 600.001C14.1128 609.664 21.5368 618.107 29.7005 622.993L313.174 792.667C329.502 802.444 356.228 802.444 372.557 792.667Z" fill="#004482"/>
<path d="M676.993 199.999C671.613 190.335 664.187 181.894 656.024 177.006L372.549 7.33201C356.221 -2.444 329.495 -2.444 313.166 7.33201L29.692 177.006C13.3603 186.78 0 210.774 0 230.323V569.675C0 579.45 3.34114 590.338 8.72372 600.001L342.858 400.001L676.993 199.999Z" fill="#659AD2"/>
<path d="M343.958 628.572C217.317 628.572 114.286 526.035 114.286 400.001C114.286 273.966 217.317 171.429 343.958 171.429C424.166 171.429 499.069 213.591 540.544 281.766L442.186 340.758C421.406 306.743 383.998 285.715 343.958 285.715C280.635 285.715 229.123 336.983 229.123 400.001C229.123 463.018 280.635 514.287 343.958 514.287C383.892 514.287 421.204 493.375 442.021 459.521L540.587 518.169C499.121 586.384 424.192 628.572 343.958 628.572Z" fill="white"/>
<path d="M542.858 385.566H514.284V357.144H485.718V385.566H457.144V413.987H485.718V442.412H514.284V413.987H542.858V385.566Z" fill="white"/>
<path d="M657.144 385.715H628.57V357.144H600.004V385.715H571.43V414.284H600.004V442.858H628.57V414.284H657.144V385.715Z" fill="white"/>
</g>
<defs>
<clipPath id="clip0_308_176">
<rect width="686" height="800" fill="white"/>
</clipPath>
</defs>
</svg>
