<svg width="534" height="800" viewBox="0 0 534 800" fill="none" xmlns="http://www.w3.org/2000/svg">
<g clip-path="url(#clip0_308_203)">
<path d="M400.001 533.333C473.639 533.333 533.335 473.638 533.335 400C533.335 326.362 473.639 266.667 400.001 266.667C326.363 266.667 266.668 326.362 266.668 400C266.668 473.638 326.363 533.333 400.001 533.333Z" fill="#19BCFE"/>
<path fill-rule="evenodd" clip-rule="evenodd" d="M133.333 800C206.971 800 266.667 740.305 266.667 666.667C266.667 646.565 266.667 602.121 266.667 533.333C206.768 533.333 162.324 533.333 133.333 533.333C59.6954 533.333 0 593.029 0 666.667C0 740.305 59.6954 800 133.333 800Z" fill="#09CF83"/>
<path fill-rule="evenodd" clip-rule="evenodd" d="M133.333 533.333C157.879 533.333 202.324 533.333 266.667 533.333V266.667C202.324 266.667 157.879 266.667 133.333 266.667C59.6954 266.667 0 326.362 0 400C0 473.638 59.6954 533.333 133.333 533.333Z" fill="#A259FF"/>
<path fill-rule="evenodd" clip-rule="evenodd" d="M133.333 266.667C157.879 266.667 202.324 266.667 266.667 266.667V0C202.324 0 157.879 0 133.333 0C59.6954 0 0 59.6954 0 133.333C0 206.971 59.6954 266.667 133.333 266.667Z" fill="#F24E1E"/>
<path fill-rule="evenodd" clip-rule="evenodd" d="M400.001 266.667H266.668V0H400.001C473.639 0 533.335 59.6954 533.335 133.333C533.335 206.971 473.639 266.667 400.001 266.667Z" fill="#FF7262"/>
</g>
<defs>
<clipPath id="clip0_308_203">
<rect width="534" height="800" fill="white"/>
</clipPath>
</defs>
</svg>
