<svg width="800" height="796" viewBox="0 0 800 796" fill="none" xmlns="http://www.w3.org/2000/svg">
<g clip-path="url(#clip0_308_235)">
<path d="M771.717 84.2534L606.988 4.94609C597.686 0.46072 587.218 -1.01946 577.037 0.710752C566.855 2.44096 557.464 7.29584 550.165 14.6024L10.9268 506.216C4.38422 512.153 0.46788 520.445 0.039266 529.269C-0.389348 538.093 2.70486 546.726 8.64124 553.269C9.35546 554.041 10.0697 554.783 10.8411 555.469L54.8657 595.465C60.6185 600.701 68.0233 603.757 75.7943 604.101C83.5653 604.445 91.2114 602.057 97.4048 597.351L746.919 104.823C751.825 101.1 757.673 98.8208 763.804 98.2412C769.935 97.6616 776.106 98.8049 781.623 101.542C787.14 104.28 791.783 108.503 795.029 113.736C798.276 118.969 799.997 125.005 800 131.164V129.249C799.999 119.847 797.345 110.637 792.341 102.676C787.338 94.7164 780.189 88.3305 771.717 84.2534Z" fill="#0065A9"/>
<path d="M771.717 711.055L606.988 790.391C597.683 794.864 587.218 796.337 577.04 794.607C566.861 792.877 557.471 788.03 550.165 780.735L10.9268 289.092C4.38422 283.156 0.46788 274.863 0.039266 266.039C-0.389348 257.215 2.70486 248.582 8.64124 242.039C9.35546 241.268 10.0697 240.525 10.8411 239.839L54.8657 199.843C60.6243 194.585 68.0461 191.516 75.8363 191.172C83.6264 190.827 91.2902 193.229 97.4905 197.957L746.919 690.485C751.825 694.208 757.673 696.488 763.804 697.067C769.935 697.647 776.106 696.503 781.623 693.766C787.14 691.028 791.783 686.805 795.029 681.572C798.276 676.339 799.997 670.303 800 664.145V666.202C799.969 675.579 797.301 684.758 792.299 692.69C787.297 700.621 780.165 706.986 771.717 711.055Z" fill="#007ACC"/>
<path d="M606.985 790.391C597.679 794.864 587.215 796.337 577.036 794.607C566.857 792.878 557.467 788.03 550.161 780.735C554.264 784.784 559.47 787.532 565.128 788.635C570.786 789.738 576.643 789.147 581.966 786.935C587.289 784.723 591.841 780.99 595.052 776.202C598.262 771.415 599.988 765.787 600.014 760.022V35.2863C600.019 29.4951 598.305 23.8327 595.089 19.0165C591.873 14.2003 587.299 10.4469 581.949 8.23191C576.598 6.0169 570.71 5.43989 565.031 6.57396C559.351 7.70804 554.137 10.5022 550.047 14.6024C557.347 7.29852 566.736 2.44333 576.916 0.708318C587.096 -1.0267 597.563 0.444191 606.87 4.91756L771.57 84.1106C780.069 88.1673 787.247 94.5445 792.277 102.506C797.307 110.468 799.983 119.689 799.996 129.107V666.202C799.999 675.612 797.342 684.831 792.333 692.797C787.324 700.763 780.166 707.152 771.684 711.227L606.985 790.391Z" fill="#1F9CF0"/>
</g>
<defs>
<clipPath id="clip0_308_235">
<rect width="800" height="796" fill="white"/>
</clipPath>
</defs>
</svg>
