<svg width="706" height="800" viewBox="0 0 706 800" fill="none" xmlns="http://www.w3.org/2000/svg">
<g clip-path="url(#clip0_308_137)">
<path d="M64.1714 720.029L0 0H705.371L641.114 719.914L352.257 800L64.1714 720.029Z" fill="#1572B6"/>
<path d="M352.688 738.81L586.116 674.096L641.03 58.896H352.688V738.81Z" fill="#33A9DC"/>
<path d="M352.688 319.736H469.545L477.602 229.307H352.688V140.993H353.002H574.116L572.002 164.678L550.316 408.05H352.688V319.736Z" fill="white"/>
<path d="M353.229 549.046L352.829 549.16L254.486 522.589L248.2 452.16H200.4H159.543L171.914 590.817L352.8 641.046L353.229 640.932V549.046Z" fill="#EBEBEB"/>
<path d="M462.021 404.286L451.392 522.543L352.906 549.115V641L533.935 590.829L535.278 575.915L550.621 404.286H462.021Z" fill="white"/>
<path d="M352.986 140.993V195.85V229.078V229.307H139.958H139.672L137.901 209.45L133.872 164.678L131.758 140.993H352.986Z" fill="#EBEBEB"/>
<path d="M352.684 319.778V374.635V407.864V408.092H255.855H255.569L253.798 388.235L249.798 343.464L247.684 319.778H352.684Z" fill="#EBEBEB"/>
</g>
<defs>
<clipPath id="clip0_308_137">
<rect width="706" height="800" fill="white"/>
</clipPath>
</defs>
</svg>
