<svg width="706" height="800" viewBox="0 0 706 800" fill="none" xmlns="http://www.w3.org/2000/svg">
<g clip-path="url(#clip0_308_157)">
<path d="M64.2 720.029L0 0H705.429L641.143 719.914L352.286 800L64.2 720.029Z" fill="#E44F26"/>
<path d="M352.68 738.801L586.108 674.087L641.023 58.8867H352.68V738.801Z" fill="#F1662A"/>
<path d="M352.679 325.911H235.821L227.764 235.482H352.679V147.168H352.364H131.25L133.364 170.882L155.05 414.225H352.679V325.911Z" fill="#EBEBEB"/>
<path d="M352.725 555.256L352.325 555.37L253.982 528.827L247.696 458.398H199.896H159.039L171.411 597.027L352.325 647.256L352.725 647.141V555.256Z" fill="#EBEBEB"/>
<path d="M352.344 325.921V414.235H461.087L450.858 528.778L352.344 555.349V647.235L533.401 597.035L534.715 582.121L555.458 349.635L557.629 325.921H533.829H352.344Z" fill="white"/>
<path d="M352.344 147.168V202.025V235.282V235.482H565.372H565.658L567.429 215.654L571.458 170.882L573.572 147.168H352.344Z" fill="white"/>
</g>
<defs>
<clipPath id="clip0_308_157">
<rect width="706" height="800" fill="white"/>
</clipPath>
</defs>
</svg>
