<svg width="1500" height="1500" viewBox="0 0 1500 1500" fill="none" xmlns="http://www.w3.org/2000/svg">
<rect x="1.09766" width="1498.54" height="1499.63" rx="200" fill="white"/>
<path d="M707.429 100.35C704.633 100.604 695.738 101.493 687.732 102.129C503.089 118.773 330.137 218.387 220.596 371.493C159.599 456.622 120.587 553.187 105.846 655.469C100.635 691.172 100 701.718 100 750.127C100 798.537 100.635 809.082 105.846 844.786C141.173 1088.87 314.888 1293.94 550.489 1369.92C592.678 1383.51 637.155 1392.79 687.732 1398.38C707.429 1400.54 792.571 1400.54 812.268 1398.38C899.57 1388.72 973.529 1367.12 1046.47 1329.9C1057.65 1324.18 1059.81 1322.65 1058.29 1321.38C1057.27 1320.62 1009.62 1256.71 952.434 1179.46L848.485 1039.06L718.231 846.311C646.559 740.344 587.595 653.69 587.087 653.69C586.579 653.563 586.07 739.2 585.816 843.769C585.435 1026.86 585.308 1034.23 583.021 1038.55C579.717 1044.78 577.175 1047.32 571.838 1050.11C567.771 1052.15 564.213 1052.53 545.024 1052.53H523.04L517.195 1048.84C513.382 1046.43 510.587 1043.25 508.68 1039.57L506.012 1033.85L506.266 779.097L506.647 524.217L510.587 519.262C512.62 516.594 516.94 513.163 519.99 511.511C525.2 508.97 527.234 508.716 549.218 508.716C575.142 508.716 579.462 509.732 586.197 517.102C588.104 519.135 658.631 625.356 743.011 753.304C827.39 881.252 942.776 1055.96 999.453 1141.72L1102.39 1297.62L1107.6 1294.19C1153.72 1264.21 1202.52 1221.51 1241.15 1177.04C1323.37 1082.64 1376.36 967.524 1394.15 844.786C1399.36 809.082 1400 798.537 1400 750.127C1400 701.718 1399.36 691.172 1394.15 655.469C1358.83 411.389 1185.11 206.317 949.511 130.336C907.957 116.867 863.734 107.592 814.174 102.002C801.975 100.731 717.977 99.3334 707.429 100.35ZM973.529 493.469C979.629 496.518 984.585 502.363 986.364 508.462C987.38 511.765 987.634 582.41 987.38 741.614L986.999 970.066L946.716 908.315L906.305 846.565V680.499C906.305 573.135 906.813 512.782 907.576 509.86C909.609 502.744 914.057 497.154 920.156 493.85C925.367 491.182 927.273 490.928 947.224 490.928C966.031 490.928 969.335 491.182 973.529 493.469Z" fill="black"/>
</svg>
