<svg width="800" height="800" viewBox="0 0 800 800" fill="none" xmlns="http://www.w3.org/2000/svg">
<mask id="mask0_308_250" style="mask-type:luminance" maskUnits="userSpaceOnUse" x="0" y="160" width="800" height="481">
<path d="M0 160H800V640.109H0V160Z" fill="white"/>
</mask>
<g mask="url(#mask0_308_250)">
<path fill-rule="evenodd" clip-rule="evenodd" d="M400 160C293.333 160 226.667 213.345 200 320.036C240 266.691 286.667 246.686 340 260.023C370.43 267.624 392.178 289.718 416.252 314.154C455.467 353.97 500.859 400.055 600 400.055C706.667 400.055 773.333 346.709 800 240.018C760 293.364 713.333 313.368 660 300.032C629.57 292.43 607.822 270.336 583.748 245.901C544.533 206.085 499.141 160 400 160ZM200 400.055C93.3333 400.055 26.6667 453.4 0 560.091C40 506.745 86.6667 486.741 140 500.077C170.43 507.694 192.178 529.773 216.252 554.208C255.467 594.025 300.859 640.109 400 640.109C506.667 640.109 573.333 586.764 600 480.073C560 533.418 513.333 553.423 460 540.086C429.57 532.485 407.822 510.391 383.748 485.956C344.533 446.139 299.141 400.055 200 400.055Z" fill="#38BDF8"/>
</g>
</svg>
