<svg width="2494" height="2500" viewBox="0 0 2494 2500" fill="none" xmlns="http://www.w3.org/2000/svg">
<path d="M1247.05 2498.35C1920.51 2498.35 2466.46 1939.45 2466.46 1250C2466.46 560.554 1920.51 1.64795 1247.05 1.64795C573.589 1.64795 27.6406 560.554 27.6406 1250C27.6406 1939.45 573.589 2498.35 1247.05 2498.35Z" fill="white"/>
<path d="M1247.05 6.35498C558.428 6.35498 0 564.583 0 1253.3C0 1804.32 357.33 2271.72 852.765 2436.56C915.057 2448.08 937.991 2409.52 937.991 2376.57C937.991 2346.83 936.79 2248.58 936.289 2144.43C589.374 2219.84 516.166 1997.31 516.166 1997.31C459.482 1853.19 377.66 1814.84 377.66 1814.84C264.492 1737.42 386.173 1739.03 386.173 1739.03C511.359 1747.84 577.357 1867.52 577.357 1867.52C688.622 2058.2 869.089 2003.02 940.195 1971.17C951.411 1890.55 983.659 1835.57 1019.41 1804.42C742.401 1772.88 451.269 1665.92 451.269 1188.11C451.269 1052.01 499.942 940.741 579.76 853.412C566.841 822.065 524.178 695.277 591.878 523.522C591.878 523.522 696.633 489.972 934.887 651.312C1034.33 623.671 1140.99 609.85 1247.05 609.35C1353.01 609.85 1459.77 623.671 1559.41 651.312C1797.47 489.972 1902.02 523.522 1902.02 523.522C1969.92 695.277 1927.16 822.165 1914.24 853.512C1994.16 940.841 2042.53 1052.11 2042.53 1188.21C2042.53 1667.12 1750.8 1772.68 1473.09 1803.52C1517.85 1842.18 1557.71 1918.09 1557.71 2034.46C1557.71 2201.31 1556.31 2335.61 1556.31 2376.67C1556.31 2409.82 1578.74 2448.78 1641.94 2436.46C2137.17 2271.42 2494 1804.12 2494 1253.3C2494 564.583 1935.67 6.35498 1247.05 6.35498Z" fill="#24292F"/>
</svg>
