<svg width="800" height="800" viewBox="0 0 800 800" fill="none" xmlns="http://www.w3.org/2000/svg">
<g clip-path="url(#clip0_308_420)">
<path d="M400 800C620.914 800 800 620.914 800 400C800 179.086 620.914 0 400 0C179.086 0 0 179.086 0 400C0 620.914 179.086 800 400 800Z" fill="#1794D4"/>
<path d="M457.143 142.857H400V200H457.143V142.857Z" fill="white"/>
<path d="M228.571 228.571H285.714V285.714H228.571V228.571Z" fill="white"/>
<path d="M114.33 426.897C119.212 509.791 168.579 628.571 342.857 628.571C537.143 628.571 623.808 485.714 642.857 414.286C666.666 414.286 720 400 742.857 342.857C728.571 328.571 671.428 328.571 642.857 342.857C642.857 320 628.571 271.429 600 257.143C580.951 276.191 551.428 325.714 585.714 371.429C571.428 400 533.334 400 514.286 400H141.226C126.098 400 113.44 411.794 114.33 426.897Z" fill="white"/>
<path d="M200 314.286H142.857V371.429H200V314.286Z" fill="white"/>
<path d="M228.571 314.286H285.714V371.429H228.571V314.286Z" fill="white"/>
<path d="M371.429 314.286H314.286V371.429H371.429V314.286Z" fill="white"/>
<path d="M400 314.286H457.143V371.429H400V314.286Z" fill="white"/>
<path d="M542.857 314.286H485.714V371.429H542.857V314.286Z" fill="white"/>
<path d="M371.429 228.571H314.286V285.714H371.429V228.571Z" fill="white"/>
<path d="M400 228.571H457.143V285.714H400V228.571Z" fill="white"/>
</g>
<defs>
<clipPath id="clip0_308_420">
<rect width="800" height="800" fill="white"/>
</clipPath>
</defs>
</svg>
