<svg width="800" height="800" viewBox="0 0 800 800" fill="none" xmlns="http://www.w3.org/2000/svg">
<path d="M706.87 631.13C701.141 624.714 698.506 612.855 695.584 600.195C692.72 587.592 689.454 574.015 679.085 565.25V565.193C675.303 561.915 670.98 559.318 666.31 557.516C680.747 514.838 675.075 472.331 660.582 433.948C642.708 386.801 611.601 345.727 587.827 317.656C561.246 284.086 535.238 252.234 535.696 205.202C536.498 133.364 543.602 0.171861 417.227 0C412.071 0 406.743 0.229146 401.187 0.687441C259.917 12.0303 297.383 161.263 295.263 211.217C292.685 247.766 285.295 276.524 260.146 312.271C230.643 347.388 189.11 404.159 169.404 463.337C160.123 491.235 155.655 519.707 159.78 546.632C158.462 547.777 157.259 548.981 156.113 550.241C147.463 559.464 141.047 570.692 133.886 578.254C127.241 584.899 117.731 587.42 107.305 591.144C96.8212 594.925 85.3638 600.424 78.4321 613.772V613.829C75.3568 619.831 73.8399 626.509 74.021 633.25C74.021 639.437 74.9376 645.681 75.8542 651.696C77.802 664.299 79.7497 676.157 77.1718 684.178C68.9225 706.806 67.8341 722.388 73.6773 733.731C79.5206 745.131 91.4363 750.115 105.013 752.922C132.11 758.651 168.831 757.218 197.761 772.514C228.696 788.726 260.146 794.455 285.181 788.784C293.934 787.065 302.158 783.305 309.186 777.811C316.213 772.316 321.846 765.241 325.625 757.161C345.217 757.047 366.7 748.797 401.129 746.85C424.502 745.016 453.719 755.156 487.232 753.323C488.1 756.962 489.409 760.483 491.127 763.806L491.184 763.864C504.188 789.929 528.421 801.788 554.2 799.783C579.979 797.72 607.362 782.539 629.532 756.13C650.728 730.465 685.788 719.867 709.047 705.832C720.676 698.786 730.128 690.021 730.816 677.246C731.56 664.528 724.056 650.264 706.87 631.13Z" fill="#202020"/>
<path d="M720.217 676.673C719.816 684.521 714.087 690.422 703.604 696.723C682.522 709.441 645.229 720.44 621.454 749.313C600.717 773.946 575.51 787.408 553.283 789.184C531.113 790.903 511.979 781.737 500.636 759.051V758.937C493.59 745.589 496.512 724.565 502.412 702.395C508.313 680.225 516.791 657.424 517.937 638.921C519.083 615.147 520.458 594.409 524.468 578.426C528.478 562.385 534.722 551.616 545.836 545.486C546.347 545.21 546.862 544.942 547.382 544.684C548.643 565.25 558.84 586.217 576.828 590.743C596.477 595.898 624.834 579.056 636.807 565.25L643.796 565.021C654.337 564.734 663.102 565.364 672.153 573.213C679.085 579.056 682.408 590.227 685.272 602.601C688.136 615.032 690.428 628.552 698.964 638.176C715.405 656.508 720.733 668.767 720.217 676.673ZM320.412 734.819V734.991C318.464 759.911 304.371 773.488 282.831 778.414C261.234 783.341 231.961 778.414 202.744 763.176C170.377 745.99 131.88 747.709 107.247 742.553C94.8731 739.975 86.7957 736.079 83.1293 728.919C79.4629 721.7 79.3484 709.155 87.1967 687.672V687.615L87.254 687.5C91.1495 675.527 88.2851 662.408 86.3947 650.092C84.5042 637.832 83.5876 626.604 87.7695 618.813L87.8268 618.756C93.2118 608.387 101.117 604.663 110.913 601.169C120.652 597.617 132.281 594.867 141.447 585.701L141.505 585.644C149.983 576.65 156.457 565.422 163.904 557.459C170.205 550.756 176.507 546.288 185.959 546.231H186.246C188.031 546.247 189.812 546.4 191.573 546.689C204.177 548.579 215.118 557.402 225.716 571.723L256.25 627.349V627.406C264.385 644.363 281.514 663.039 296.065 682.058C310.616 701.134 321.844 720.211 320.412 734.819Z" fill="#F8BF11"/>
<path d="M472.681 216.086C470.217 211.274 465.233 206.691 456.64 203.197C438.881 195.577 431.205 195.062 421.294 188.646C405.254 178.277 391.906 174.668 380.85 174.668C375.542 174.693 370.276 175.603 365.268 177.36C351.748 181.943 342.811 191.682 337.197 196.952C336.051 198.041 334.676 198.957 331.239 201.535C327.802 203.999 322.646 207.837 315.199 213.451C308.496 218.378 306.377 224.908 308.668 232.47C310.96 240.032 318.235 248.797 331.583 256.359C339.889 261.228 345.618 267.816 352.149 273.029C355.429 275.756 359.073 278.012 362.976 279.732C367.101 281.508 371.913 282.711 377.871 283.055C392.078 283.914 402.504 279.617 411.67 274.404C420.836 269.134 428.627 262.718 437.564 259.796C455.895 254.067 469.014 242.553 473.139 231.554C474.18 229.094 474.678 226.439 474.598 223.77C474.519 221.1 473.865 218.48 472.681 216.086Z" fill="#D6A312"/>
<path d="M426.164 243.126C411.555 250.745 394.541 259.968 376.381 259.968C358.279 259.968 343.957 251.604 333.703 243.412C328.547 239.402 324.365 235.277 321.214 232.356C315.714 228.059 316.402 221.987 318.636 222.159C322.417 222.617 322.99 227.601 325.339 229.835C328.547 232.814 332.557 236.71 337.426 240.548C347.165 248.281 360.169 255.786 376.381 255.786C392.651 255.786 411.556 246.276 423.127 239.746C429.715 236.079 438.022 229.491 444.839 224.507C449.995 220.669 449.823 216.086 454.12 216.602C458.416 217.117 455.265 221.7 449.25 226.913C443.235 232.184 433.783 239.173 426.164 243.126Z" fill="#202020"/>
<path d="M649.525 554.423C647.54 554.363 645.553 554.363 643.567 554.423H642.994C648.036 538.554 636.922 526.925 607.419 513.577C576.828 500.115 552.424 501.432 548.299 528.758C548.013 530.19 547.783 531.623 547.669 533.112C545.296 533.953 542.997 534.988 540.794 536.206C526.358 544.054 518.51 558.318 514.156 575.848C509.802 593.321 508.542 614.459 507.339 638.291C506.594 650.207 501.667 666.361 496.684 683.547C446.557 719.295 376.954 734.762 317.834 694.432C313.824 688.13 309.241 681.829 304.486 675.642C301.467 671.699 298.412 667.784 295.32 663.898C300.583 664.039 305.815 663.063 310.673 661.034C313.1 660.015 315.296 658.516 317.127 656.625C318.958 654.735 320.387 652.493 321.328 650.035C324.937 640.296 321.328 626.662 309.756 611.08C298.242 595.44 278.707 577.853 250.006 560.209C228.924 547.033 217.123 530.992 211.624 513.577C206.067 496.105 206.812 477.2 211.051 458.582C219.243 422.777 240.267 387.947 253.615 366.121C257.224 363.485 254.933 371.047 240.095 398.602C226.805 423.809 201.885 481.955 235.971 527.383C236.887 495.074 244.564 462.076 257.568 431.313C276.415 388.52 315.886 314.391 318.979 255.27C320.641 256.416 326.14 260.197 328.661 261.572C335.879 265.869 341.321 272.113 348.368 277.784C357.557 285.539 369.29 289.62 381.308 289.242C395.057 289.242 405.769 284.716 414.649 279.617C424.387 274.118 432.064 267.931 439.454 265.582C454.921 260.713 467.295 252.12 474.284 242.094C486.315 289.643 514.385 358.215 532.373 391.671C541.94 409.43 561.017 447.182 569.209 492.61C574.422 492.496 580.151 493.183 586.338 494.787C607.82 439.047 568.063 378.953 549.903 362.225C542.57 355.122 542.169 351.914 545.893 352.085C565.542 369.501 591.436 404.618 600.888 444.203C605.185 462.248 606.044 481.21 601.461 499.943C603.753 500.917 606.044 501.891 608.336 503.036C642.88 519.821 655.655 534.43 649.525 554.423Z" fill="white"/>
<path d="M403.364 403.644C371.512 403.758 340.405 418.023 314.111 444.661C287.759 471.242 267.479 508.937 255.792 552.819L259.287 554.996V555.225C286.212 572.296 305.403 589.482 317.261 605.523C329.807 622.48 335.364 638.978 330.036 653.3C327.224 660.535 321.663 666.363 314.569 669.512L312.22 670.371C316.459 675.928 320.584 681.657 324.422 687.558C378.501 723.534 441.402 710.243 488.664 677.704C493.247 661.778 497.429 646.998 498.002 637.718C499.205 613.944 500.408 592.347 505.105 573.557C509.803 554.652 518.969 537.466 536.269 528.013C537.243 527.441 538.217 527.154 539.191 526.696C539.496 524.876 539.917 523.077 540.451 521.311C526.588 485.678 506.595 456.004 482.591 435.381C458.531 414.757 431.205 403.815 403.421 403.644H403.364ZM539.134 527.097L539.019 527.383V527.269L539.076 527.04L539.134 527.097Z" fill="#E6E6E6"/>
<path d="M474.285 161.377C474.532 174.934 470.192 188.177 461.968 198.957C457.855 197.12 453.691 195.401 449.48 193.802L442.204 191.224C443.865 189.219 447.073 186.927 448.334 183.948C450.148 179.527 451.12 174.806 451.198 170.028L451.255 169.455C451.398 164.865 450.719 160.286 449.25 155.935C448.097 151.961 445.971 148.338 443.063 145.394C441.911 144.171 440.528 143.187 438.995 142.499C437.461 141.81 435.807 141.432 434.127 141.384H433.726C430.518 141.429 427.439 142.652 425.075 144.821C421.948 147.53 419.546 150.975 418.086 154.847C416.281 159.27 415.31 163.99 415.222 168.767V169.34C415.132 172.024 415.304 174.71 415.737 177.36C409.239 174.361 402.441 172.056 395.458 170.486C395.125 167.959 394.934 165.415 394.885 162.867V162.122C394.643 153.318 396.365 144.57 399.926 136.515C402.959 129.098 407.9 122.615 414.248 117.725C419.862 113.191 426.853 110.705 434.069 110.678H434.413C441.574 110.678 447.704 112.741 454.005 117.324C460.493 122.073 465.58 128.486 468.728 135.885C472.337 143.79 474.113 151.524 474.285 160.69L474.342 161.377H474.285ZM366.012 170.772C360.404 172.377 355.058 174.789 350.144 177.933C350.528 175.084 350.567 172.199 350.259 169.34V168.882C349.908 165.097 348.981 161.388 347.509 157.883C346.33 154.799 344.447 152.033 342.009 149.805C341.114 148.927 340.045 148.244 338.872 147.8C337.698 147.356 336.445 147.161 335.192 147.227C332.786 147.457 330.781 148.602 328.891 150.951C326.878 153.578 325.505 156.638 324.88 159.888C323.987 163.735 323.736 167.703 324.136 171.632V172.09C324.465 175.897 325.393 179.628 326.886 183.146C328.257 186.668 330.553 189.756 333.531 192.083L327.688 196.666L323.219 199.874C319.25 195.971 316.13 191.29 314.053 186.125C311.017 179.251 309.356 172.376 308.897 164.299V164.242C308.373 156.699 309.247 149.125 311.475 141.9C313.185 135.599 316.479 129.841 321.042 125.172C322.957 123.058 325.29 121.366 327.893 120.202C330.497 119.038 333.314 118.429 336.166 118.412C340.978 118.412 345.217 120.016 349.628 123.568C354.668 127.707 358.588 133.045 361.029 139.093C364.065 145.967 365.611 152.842 366.127 160.976C366.299 164.413 366.299 167.622 366.012 170.772Z" fill="white"/>
<path d="M389.958 190.135C390.531 192.083 393.682 191.797 395.515 192.713C397.062 193.515 398.379 195.291 400.098 195.348C401.817 195.406 404.452 194.775 404.681 193.057C404.967 190.88 401.702 189.448 399.64 188.646C396.947 187.557 393.51 187.042 390.989 188.474C390.417 188.76 389.786 189.448 389.958 190.135ZM371.512 190.135C370.939 192.083 367.788 191.797 366.012 192.713C364.408 193.515 363.148 195.291 361.372 195.348C359.653 195.406 357.018 194.775 356.789 193.057C356.503 190.88 359.768 189.448 361.83 188.646C364.523 187.557 368.017 187.042 370.538 188.474C371.111 188.76 371.684 189.448 371.512 190.135Z" fill="#202020"/>
</svg>
