<svg width="743" height="800" viewBox="0 0 743 800" fill="none" xmlns="http://www.w3.org/2000/svg">
<g clip-path="url(#clip0_308_441)">
<path d="M405.006 8.5349C384.723 -2.87052 358.277 -2.81938 337.976 8.5349C236.3 64.6363 134.621 120.755 32.9251 176.83C13.1365 187.239 -0.210388 208.485 0.00251045 230.537V569.509C-0.140374 591.991 13.8946 613.443 34.1937 623.709C63.4039 639.246 91.7833 656.36 121.522 670.863C155.873 687.74 198.85 691.471 233.622 673.871C261.847 659.286 274.384 626.843 274.347 597.029C274.576 485.16 274.384 373.289 274.436 261.417C275.107 256.446 271.372 251.131 265.948 251.251C252.954 251.046 239.943 251.131 226.949 251.217C222.04 250.754 217.247 254.831 217.619 259.766C217.445 370.914 217.653 482.097 217.513 593.263C217.796 608.64 207.406 623.417 192.584 628.611C158.35 640.609 60.6396 577.177 60.6396 577.177C57.0538 575.517 54.7768 571.629 55.1283 567.766C55.1283 455.931 55.1457 344.094 55.1283 232.277C54.6353 227.769 57.4144 223.709 61.5552 221.868C162.898 166.097 264.188 110.187 365.53 54.3818C369.051 52.0329 373.958 52.0401 377.47 54.3989C478.812 110.187 580.12 166.046 681.48 221.819C685.635 223.657 688.295 227.786 687.872 232.277C687.855 344.094 687.907 455.931 687.838 567.751C688.138 571.709 686.092 575.543 682.397 577.28C582 632.749 480.461 686.429 380.973 743.509C376.632 745.997 371.714 748.817 366.851 746.074C340.688 731.606 314.843 716.574 288.767 701.966C285.932 700.197 282.323 699.437 279.365 701.417C267.674 707.577 256.678 712.566 243.252 717.88C224.397 725.343 227.409 728.394 244.416 738.3C274.91 755.554 305.456 772.74 335.95 790.011C356.026 802.537 382.999 803.429 403.72 791.854C505.414 735.823 607.077 679.726 708.791 623.694C729.034 613.371 743.14 592.006 742.997 569.506V230.537C743.194 208.933 730.358 188.065 711.165 177.503C609.134 121.128 507.055 64.8755 405.006 8.5349Z" fill="#8CC84B"/>
<path d="M558.447 263.034C518.534 241.686 471.05 240.549 426.696 243.34C394.653 246.506 360.952 255.346 337.608 278.312C313.663 301.397 308.451 338.677 319.824 368.814C327.974 390.111 348.49 403.96 369.705 411.286C397.033 420.932 425.736 423.914 454.447 426.897C480.635 429.617 506.832 432.34 532.002 440.12C542.284 443.526 554.258 448.737 557.407 459.923C560.316 473.169 557.127 488.566 546.371 497.769C512.204 524.806 417.163 520.663 383.405 499.383C369.757 490.317 363.875 474.269 361.484 458.974C361.218 454.209 357.38 449.837 352.205 450.2C339.245 450.046 326.285 450.08 313.326 450.183C308.805 449.803 304.104 453.02 303.855 457.634C301.192 527.683 365.539 558.22 425.907 564.943C460.397 568.229 495.644 568.04 529.607 560.64C555.138 554.829 580.737 544.126 598.312 524.466C619.985 500.572 624.245 464.997 614.526 435.234C607.096 413.026 585.861 398.78 564.154 391.452C534.634 381.332 499.65 375.891 472.914 373.346C434.052 369.646 387.871 371.157 376.872 345.626C372.486 332.257 376.218 315.657 388.506 307.434C421.018 285.386 487.188 288.314 520.857 304.786C536.317 312.526 545.276 328.423 548.974 344.472C549.66 349.186 552.832 354.106 558.29 353.9C571.161 354.157 584.032 353.969 596.9 353.986C601.321 354.294 606.162 351.8 607.025 347.274C606.479 313.732 589.347 279.394 558.447 263.034Z" fill="#8CC84B"/>
</g>
<defs>
<clipPath id="clip0_308_441">
<rect width="743" height="800" fill="white"/>
</clipPath>
</defs>
</svg>
