<svg width="800" height="800" viewBox="0 0 800 800" fill="none" xmlns="http://www.w3.org/2000/svg">
<path d="M797.352 118.41L422.024 789.559C414.272 803.414 394.366 803.497 386.498 789.708L3.72903 118.472C-4.83895 103.444 8.00731 85.2429 25.0347 88.2846L400.769 155.446C403.166 155.875 405.62 155.871 408.015 155.435L775.89 88.3817C792.86 85.2886 805.772 103.353 797.352 118.41Z" fill="url(#paint0_linear_308_447)"/>
<path d="M579.749 0.197184L301.995 54.621C299.775 55.0553 297.763 56.2152 296.275 57.9183C294.786 59.6213 293.906 61.7707 293.773 64.0286L276.688 352.592C276.288 359.39 282.529 364.665 289.16 363.134L366.492 345.29C373.729 343.619 380.266 349.993 378.778 357.268L355.805 469.774C354.257 477.342 361.365 483.82 368.76 481.575L416.523 467.061C423.929 464.813 431.043 471.307 429.478 478.884L392.967 655.605C390.682 666.657 405.385 672.683 411.517 663.207L415.612 656.878L641.941 205.197C645.731 197.635 639.199 189.013 630.888 190.615L551.292 205.977C543.809 207.419 537.446 200.454 539.557 193.134L591.51 13.0349C593.623 5.70068 587.237 -1.2708 579.749 0.197184Z" fill="url(#paint1_linear_308_447)"/>
<defs>
<linearGradient id="paint0_linear_308_447" x1="-5.61764" y1="64.2957" x2="461.485" y2="698.658" gradientUnits="userSpaceOnUse">
<stop stop-color="#41D1FF"/>
<stop offset="1" stop-color="#BD34FE"/>
</linearGradient>
<linearGradient id="paint1_linear_308_447" x1="379.183" y1="14.9711" x2="463.68" y2="594.609" gradientUnits="userSpaceOnUse">
<stop stop-color="#FFEA83"/>
<stop offset="0.0833" stop-color="#FFDD35"/>
<stop offset="1" stop-color="#FFA800"/>
</linearGradient>
</defs>
</svg>
